<svg width="39" height="31" viewBox="0 0 39 31" fill="none" xmlns="http://www.w3.org/2000/svg">
<path d="M32.175 27.125L19.5 25.5L6.825 27.125C6.28875 27.125 5.85 27.5609 5.85 28.0938V30.0312C5.85 30.5641 6.28875 31 6.825 31L19.5 29L32.175 31C32.7113 31 33.15 30.5641 33.15 30.0312V28.0938C33.15 27.5609 32.7113 27.125 32.175 27.125ZM36.075 7.75C34.4602 7.75 33.15 9.05176 33.15 10.6562C33.15 11.0861 33.2475 11.4857 33.4181 11.8551L29.0063 14.4828C28.0678 15.0398 26.8552 14.725 26.3128 13.7805L21.3464 5.14648C21.9984 4.61367 22.425 3.81445 22.425 2.90625C22.425 1.30176 21.1148 0 19.5 0C17.8852 0 16.575 1.30176 16.575 2.90625C16.575 3.81445 17.0016 4.61367 17.6536 5.14648L12.6872 13.7805C12.1448 14.725 10.9261 15.0398 9.99375 14.4828L5.58797 11.8551C5.7525 11.4918 5.85609 11.0861 5.85609 10.6562C5.85609 9.05176 4.54594 7.75 2.93109 7.75C1.31625 7.75 0 9.05176 0 10.6562C0 12.2607 1.31016 13.5625 2.925 13.5625C3.08344 13.5625 3.24187 13.5383 3.39422 13.5141L7.8 25.1875L19.5 23.5L31.2 25.1875L35.6058 13.5141C35.7581 13.5383 35.9166 13.5625 36.075 13.5625C37.6898 13.5625 39 12.2607 39 10.6562C39 9.05176 37.6898 7.75 36.075 7.75Z" fill="#FEFCBF"/>
</svg>
