<svg width="18" height="19" viewBox="0 0 18 19" fill="none" xmlns="http://www.w3.org/2000/svg">
<path d="M6.03271 0.57002C6.03271 0.418842 6.09633 0.273855 6.20957 0.166955C6.3228 0.0600557 6.47639 0 6.63653 0H11.467C11.6272 0 11.7808 0.0600557 11.894 0.166955C12.0072 0.273855 12.0708 0.418842 12.0708 0.57002C12.0708 0.721199 12.0072 0.866186 11.894 0.973085C11.7808 1.07999 11.6272 1.14004 11.467 1.14004H6.63653C6.47639 1.14004 6.3228 1.07999 6.20957 0.973085C6.09633 0.866186 6.03271 0.721199 6.03271 0.57002Z" fill="white"/>
<path d="M15.0279 2.19904C15.141 2.09253 15.2943 2.03271 15.4542 2.03271C15.614 2.03271 15.7673 2.09253 15.8804 2.19904L17.588 3.81106C17.6457 3.86364 17.6917 3.92654 17.7233 3.99608C17.755 4.06563 17.7716 4.14043 17.7723 4.21611C17.773 4.2918 17.7578 4.36686 17.7274 4.43691C17.697 4.50697 17.6522 4.57061 17.5955 4.62413C17.5388 4.67765 17.4714 4.71998 17.3972 4.74864C17.323 4.7773 17.2435 4.79172 17.1633 4.79107C17.0831 4.79041 17.0039 4.77468 16.9302 4.74481C16.8566 4.71493 16.7899 4.67151 16.7342 4.61707L15.0279 3.00505C14.9147 2.89815 14.8511 2.75319 14.8511 2.60204C14.8511 2.4509 14.9147 2.30593 15.0279 2.19904Z" fill="white"/>
<path d="M17.5049 10.261C17.5049 12.3775 16.6143 14.4074 15.029 15.904C13.4437 17.4005 11.2935 18.2413 9.05153 18.2413C6.80955 18.2413 4.6594 17.4005 3.07408 15.904C1.48877 14.4074 0.598145 12.3775 0.598145 10.261C0.598145 8.14454 1.48877 6.11473 3.07408 4.61813C4.6594 3.12154 6.80955 2.28076 9.05153 2.28076C11.2935 2.28076 13.4437 3.12154 15.029 4.61813C16.6143 6.11473 17.5049 8.14454 17.5049 10.261ZM8.44771 5.13086V10.8311C8.44771 10.9822 8.51133 11.1272 8.62457 11.2341C8.7378 11.341 8.89139 11.4011 9.05153 11.4011C9.21167 11.4011 9.36525 11.341 9.47849 11.2341C9.59172 11.1272 9.65534 10.9822 9.65534 10.8311V5.13086C9.65534 4.97968 9.59172 4.8347 9.47849 4.7278C9.36525 4.6209 9.21167 4.56084 9.05153 4.56084C8.89139 4.56084 8.7378 4.6209 8.62457 4.7278C8.51133 4.8347 8.44771 4.97968 8.44771 5.13086Z" fill="white"/>
</svg>
